<svg viewBox="0 0 330 200" xmlns="http://www.w3.org/2000/svg"><g><g><g><g><g><line x1="50" y1="178" x2="45" y2="178" style="visibility: inherit;" fill="rgb(0, 0, 0)" stroke="rgb(204, 204, 204)" stroke-width="1px"></line><line x1="50" y1="155.75" x2="45" y2="155.75" style="visibility: inherit;" fill="rgb(0, 0, 0)" stroke="rgb(204, 204, 204)" stroke-width="1px"></line><line x1="50" y1="133.50000000000003" x2="45" y2="133.50000000000003" style="visibility: inherit;" fill="rgb(0, 0, 0)" stroke="rgb(204, 204, 204)" stroke-width="1px"></line><line x1="50" y1="111.25000000000001" x2="45" y2="111.25000000000001" style="visibility: inherit;" fill="rgb(0, 0, 0)" stroke="rgb(204, 204, 204)" stroke-width="1px"></line><line x1="50" y1="89" x2="45" y2="89" style="visibility: inherit;" fill="rgb(0, 0, 0)" stroke="rgb(204, 204, 204)" stroke-width="1px"></line><line x1="50" y1="66.75000000000004" x2="45" y2="66.75000000000004" style="visibility: inherit;" fill="rgb(0, 0, 0)" stroke="rgb(204, 204, 204)" stroke-width="1px"></line><line x1="50" y1="44.50000000000003" x2="45" y2="44.50000000000003" style="visibility: inherit;" fill="rgb(0, 0, 0)" stroke="rgb(204, 204, 204)" stroke-width="1px"></line><line x1="50" y1="22.25000000000003" x2="45" y2="22.25000000000003" style="visibility: inherit;" fill="rgb(0, 0, 0)" stroke="rgb(204, 204, 204)" stroke-width="1px"></line><line x1="50" y1="0" x2="45" y2="0" style="visibility: inherit;" fill="rgb(0, 0, 0)" stroke="rgb(204, 204, 204)" stroke-width="1px"></line></g><g transform="translate(40, 0)"><text x="0" y="178" dx="0em" dy="0.3em" style="text-anchor: end; visibility: hidden; font-family: &quot;Helvetica Neue&quot;, sans-serif; font-size: 12px; font-weight: 200;" fill="rgb(50, 49, 63)" stroke="none" stroke-width="1px">0.38</text><text x="0" y="155.75" dx="0em" dy="0.3em" style="text-anchor: end; visibility: inherit; font-family: &quot;Helvetica Neue&quot;, sans-serif; font-size: 12px; font-weight: 200;" fill="rgb(50, 49, 63)" stroke="none" stroke-width="1px">0.4</text><text x="0" y="133.50000000000003" dx="0em" dy="0.3em" style="text-anchor: end; visibility: hidden; font-family: &quot;Helvetica Neue&quot;, sans-serif; font-size: 12px; font-weight: 200;" fill="rgb(50, 49, 63)" stroke="none" stroke-width="1px">0.42</text><text x="0" y="111.25000000000001" dx="0em" dy="0.3em" style="text-anchor: end; visibility: inherit; font-family: &quot;Helvetica Neue&quot;, sans-serif; font-size: 12px; font-weight: 200;" fill="rgb(50, 49, 63)" stroke="none" stroke-width="1px">0.44</text><text x="0" y="89" dx="0em" dy="0.3em" style="text-anchor: end; visibility: hidden; font-family: &quot;Helvetica Neue&quot;, sans-serif; font-size: 12px; font-weight: 200;" fill="rgb(50, 49, 63)" stroke="none" stroke-width="1px">0.46</text><text x="0" y="66.75000000000004" dx="0em" dy="0.3em" style="text-anchor: end; visibility: inherit; font-family: &quot;Helvetica Neue&quot;, sans-serif; font-size: 12px; font-weight: 200;" fill="rgb(50, 49, 63)" stroke="none" stroke-width="1px">0.48</text><text x="0" y="44.50000000000003" dx="0em" dy="0.3em" style="text-anchor: end; visibility: hidden; font-family: &quot;Helvetica Neue&quot;, sans-serif; font-size: 12px; font-weight: 200;" fill="rgb(50, 49, 63)" stroke="none" stroke-width="1px">0.5</text><text x="0" y="22.25000000000003" dx="0em" dy="0.3em" style="text-anchor: end; visibility: inherit; font-family: &quot;Helvetica Neue&quot;, sans-serif; font-size: 12px; font-weight: 200;" fill="rgb(50, 49, 63)" stroke="none" stroke-width="1px">0.52</text><text x="0" y="0" dx="0em" dy="0.3em" style="text-anchor: end; visibility: hidden; font-family: &quot;Helvetica Neue&quot;, sans-serif; font-size: 12px; font-weight: 200;" fill="rgb(50, 49, 63)" stroke="none" stroke-width="1px">0.54</text></g><line x1="50" y1="0" x2="50" y2="178" fill="rgb(0, 0, 0)" stroke="rgb(204, 204, 204)" stroke-width="1px"></line></g></g><g transform="translate(50, 0)" clip-path="url(#clip_0)"><clipPath id="clip_0"><rect width="280" height="178"></rect></clipPath><g><g><g><line x1="0" y1="0" x2="0" y2="178" fill="rgb(0, 0, 0)" stroke="rgb(60, 60, 60)" stroke-width="1px" opacity="0.25"></line><line x1="21.53846153846154" y1="0" x2="21.53846153846154" y2="178" fill="rgb(0, 0, 0)" stroke="rgb(60, 60, 60)" stroke-width="1px" opacity="0.25"></line><line x1="43.07692307692308" y1="0" x2="43.07692307692308" y2="178" fill="rgb(0, 0, 0)" stroke="rgb(60, 60, 60)" stroke-width="1px" opacity="0.25"></line><line x1="64.61538461538461" y1="0" x2="64.61538461538461" y2="178" fill="rgb(0, 0, 0)" stroke="rgb(60, 60, 60)" stroke-width="1px" opacity="0.25"></line><line x1="86.15384615384616" y1="0" x2="86.15384615384616" y2="178" fill="rgb(0, 0, 0)" stroke="rgb(60, 60, 60)" stroke-width="1px" opacity="0.25"></line><line x1="107.6923076923077" y1="0" x2="107.6923076923077" y2="178" fill="rgb(0, 0, 0)" stroke="rgb(60, 60, 60)" stroke-width="1px" opacity="0.25"></line><line x1="129.23076923076923" y1="0" x2="129.23076923076923" y2="178" fill="rgb(0, 0, 0)" stroke="rgb(60, 60, 60)" stroke-width="1px" opacity="0.25"></line><line x1="150.76923076923077" y1="0" x2="150.76923076923077" y2="178" fill="rgb(0, 0, 0)" stroke="rgb(60, 60, 60)" stroke-width="1px" opacity="0.25"></line><line x1="172.30769230769232" y1="0" x2="172.30769230769232" y2="178" fill="rgb(0, 0, 0)" stroke="rgb(60, 60, 60)" stroke-width="1px" opacity="0.25"></line><line x1="193.84615384615384" y1="0" x2="193.84615384615384" y2="178" fill="rgb(0, 0, 0)" stroke="rgb(60, 60, 60)" stroke-width="1px" opacity="0.25"></line><line x1="215.3846153846154" y1="0" x2="215.3846153846154" y2="178" fill="rgb(0, 0, 0)" stroke="rgb(60, 60, 60)" stroke-width="1px" opacity="0.25"></line><line x1="236.92307692307693" y1="0" x2="236.92307692307693" y2="178" fill="rgb(0, 0, 0)" stroke="rgb(60, 60, 60)" stroke-width="1px" opacity="0.25"></line><line x1="258.46153846153845" y1="0" x2="258.46153846153845" y2="178" fill="rgb(0, 0, 0)" stroke="rgb(60, 60, 60)" stroke-width="1px" opacity="0.25"></line><line x1="280" y1="0" x2="280" y2="178" fill="rgb(0, 0, 0)" stroke="rgb(60, 60, 60)" stroke-width="1px" opacity="0.25"></line></g><g><line x1="0" y1="178" x2="280" y2="178" fill="rgb(0, 0, 0)" stroke="rgb(60, 60, 60)" stroke-width="1px" opacity="0.25"></line><line x1="0" y1="155.75" x2="280" y2="155.75" fill="rgb(0, 0, 0)" stroke="rgb(60, 60, 60)" stroke-width="1px" opacity="0.25"></line><line x1="0" y1="133.50000000000003" x2="280" y2="133.50000000000003" fill="rgb(0, 0, 0)" stroke="rgb(60, 60, 60)" stroke-width="1px" opacity="0.25"></line><line x1="0" y1="111.25000000000001" x2="280" y2="111.25000000000001" fill="rgb(0, 0, 0)" stroke="rgb(60, 60, 60)" stroke-width="1px" opacity="0.25"></line><line x1="0" y1="89" x2="280" y2="89" fill="rgb(0, 0, 0)" stroke="rgb(60, 60, 60)" stroke-width="1px" opacity="0.25"></line><line x1="0" y1="66.75000000000004" x2="280" y2="66.75000000000004" fill="rgb(0, 0, 0)" stroke="rgb(60, 60, 60)" stroke-width="1px" opacity="0.25"></line><line x1="0" y1="44.50000000000003" x2="280" y2="44.50000000000003" fill="rgb(0, 0, 0)" stroke="rgb(60, 60, 60)" stroke-width="1px" opacity="0.25"></line><line x1="0" y1="22.25000000000003" x2="280" y2="22.25000000000003" fill="rgb(0, 0, 0)" stroke="rgb(60, 60, 60)" stroke-width="1px" opacity="0.25"></line><line x1="0" y1="0" x2="280" y2="0" fill="rgb(0, 0, 0)" stroke="rgb(60, 60, 60)" stroke-width="1px" opacity="0.25"></line></g></g></g><g><g><line x1="0" y1="600.75" x2="280" y2="600.75" fill="rgb(0, 0, 0)" stroke="rgb(153, 153, 153)" stroke-width="1.5px"></line></g></g><g><g><line x1="21.53846153846154" y1="0" x2="21.53846153846154" y2="178" fill="rgb(0, 0, 0)" stroke="rgb(153, 153, 153)" stroke-width="1.5px"></line></g></g><g><g><g><g><g><path stroke="rgb(255, 112, 67)" stroke-width="2px" d="M35.32307692307692,-2.190243570107924L35.79692307692308,0.0894365123363059L36.184615384615384,3.845663992515938L36.52923076923077,7.557296093009455L37.21846153846154,10.989657009248106L37.39076923076924,12.768657855381178L37.82153846153846,14.74737500343295L39.716923076923074,16.988804256002L39.76,18.490545199891898L40.10461538461538,22.002776343492428L40.49230769230769,23.564040817176192L40.57846153846154,25.06870070799701L40.621538461538464,27.83974172818165L40.75076923076923,30.031485678214068L41.00923076923077,32.122678649104586L41.39692307692308,34.051886291017325L41.526153846153846,35.00131716971282L41.569230769230764,36.00501551895147L42,37.09358415163513L42.73230769230769,38.30237146682401L42.818461538461534,38.96237191404225L43.63692307692308,40.47572792815512L43.72307692307692,42.344128890379324L43.8523076923077,42.99354387167625L44.19692307692308,46.31453783778278L44.45538461538462,47.17907281063114L44.541538461538465,46.94977669555115L44.67076923076923,49.996048122170635L44.92923076923077,51.386448281017394L45.144615384615385,51.265302053742914L45.57538461538462,51.15341558948252L45.83384615384615,52.887249411316034L46.09230769230769,54.07381108490061L46.26461538461539,53.40058556360033L46.52307692307692,55.48146361181712L46.60923076923077,56.49877536674397L46.738461538461536,56.49937443217979L46.824615384615385,57.40448283266613L46.86769230769231,57.266473132386196L47.08307692307692,59.53973127920787L47.12615384615384,61.06134925846857L47.51384615384615,61.115044934635236L47.85846153846154,61.493104928318445L48.073846153846155,61.323469427436294L48.28923076923077,60.07714498013185L48.37538461538461,60.24404563599178L48.892307692307696,60.19048904321667L49.19384615384616,60.624631367591164L49.23692307692308,61.00795773299903L49.323076923076925,62.533545978385945L49.45230769230769,63.88226141644502L49.53846153846154,64.01871220935627L50.05538461538461,65.18208433572873L50.184615384615384,64.91864518554286L50.35692307692308,64.95598833004007L50.48615384615385,66.17219189418722L50.61538461538461,66.65002277325483L50.78769230769231,65.8963017701816L50.83076923076923,65.7941713784652L51.003076923076925,64.84973321371422L51.21846153846153,65.5488030687208L51.99384615384615,65.69098582865966L52.33846153846154,67.31128226119444L52.510769230769235,66.93267447876306L52.68307692307692,66.79292967782368L52.72615384615385,67.207132169303L53.027692307692305,68.09861124822461L53.41538461538462,70.15553445960543L53.58769230769231,70.80416362671872L53.76,71.05589566464795L53.93230769230769,71.10591703265816L53.97538461538462,71.65125535413955L54.1476923076923,71.3761285292221L54.535384615384615,71.53685882232169L54.707692307692305,71.56551119414279L54.75076923076924,72.70271030113464L54.793846153846154,73.51008330704367L54.88,73.17373199829406L54.92307692307692,73.75146527220974L55.18153846153846,74.2554892254088L55.353846153846156,74.29622389951477L55.39692307692307,74.50207498175L55.48307692307692,74.34206417164263L55.69846153846154,73.62633882517939L55.74153846153846,74.48930876199414L55.784615384615385,74.77428149577804L55.956923076923076,74.03452776539865L56.12923076923077,73.88766227225149L56.34461538461539,75.3891960402525L56.387692307692305,77.7569317009673L56.43076923076923,77.75279864666206L57.42153846153846,77.49586629064761L57.59384615384616,77.82894760387946L57.68,78.52522288705788L57.895384615384614,77.88577967219311L59.01538461538461,77.97050304419452L59.23076923076923,80.53603977528186L59.316923076923075,82.01793728808542L59.575384615384614,81.73904033474035L59.92,81.34299453198201L60.178461538461534,81.20349177374948L60.35076923076923,81.17472190729114L60.652307692307694,81.13792270513459L60.738461538461536,81.07092795767092L60.99692307692308,82.16070276011281L61.083076923076916,83.02601023327391L61.2123076923077,83.50525143912085L61.34153846153846,82.88739303438891L61.68615384615385,82.86211509558252L61.72923076923077,83.19501202874093L61.85846153846153,82.99543790577894L62.160000000000004,84.78939555156552L62.28923076923077,84.62674891622909L62.676923076923075,83.23636839624238L62.84923076923077,83.50470521857564L62.97846153846154,83.14674853124045L63.021538461538455,82.82425630775306L63.40923076923077,83.55085285753144L63.45230769230769,83.99655289603974L63.62461538461539,83.28300303747965L63.71076923076924,82.90173864302515L63.753846153846155,82.95725995356437L63.926153846153845,83.57821056246006L63.96923076923077,85.52321610755943L64.09846153846154,85.71554195781314L64.14153846153846,84.95547150713777L64.48615384615384,86.1764153094275L64.65846153846154,86.70473187793614L64.74461538461539,86.06398148785557L64.87384615384616,85.46775118366605L65.26153846153846,86.0599256063994L65.39076923076922,85.75444037253568L65.73538461538462,86.34242427794746L66.2523076923077,87.77420303226671L66.55384615384615,87.43207854657818L67.11384615384615,87.16406917820012L67.3723076923077,88.68642505999169L67.50153846153846,88.21757644195888L67.58769230769231,88.8949412321544L67.75999999999999,87.59409931073083L67.93230769230769,88.24104820213391L68.01846153846154,89.30081711831136L68.23384615384614,89.20474527738698L68.27692307692308,87.61877689875044L68.66461538461539,88.17382360689757L68.92307692307693,88.17143183146852L69.09538461538462,90.20315669781904L69.13846153846154,92.10096569900561L69.56923076923077,91.34372052055589L69.78461538461538,91.90499727930212L70.3876923076923,92.13395769838041L71.33538461538461,91.63957218011319L71.37846153846154,91.42783974045219L71.55076923076923,91.84669024499806L71.59384615384616,91.64629627336102L71.63692307692307,91.3077732744182L72.41230769230769,91.49229779310782L72.92923076923077,91.33177174428042L72.9723076923077,90.98116962862977L73.23076923076924,92.11314531040735L73.31692307692308,92.31638178856043L73.5323076923077,92.11001242116129L74.6523076923077,92.11506530697916L74.73846153846154,92.46510570651668L75.16923076923078,93.15624073737041L75.64307692307692,92.84511653529542L75.77230769230769,92.78989147460187L75.90153846153846,92.81771140959306L76.76307692307692,94.47867906151522L77.02153846153846,93.47903635838543L77.32307692307693,93.29384362683099L77.58153846153846,93.46504627048715L78.01230769230769,93.48379212553928L78.22769230769231,93.39555901442283L78.27076923076922,93.27832609330916L78.4,95.14883000759583L78.74461538461539,95.27143065701324L78.87384615384616,94.65915079322659L79.00307692307692,95.6028355759698L79.13230769230769,95.82945301613245L79.17538461538462,95.83536844624052L79.95076923076923,95.29882990721077L80.59692307692308,94.67594067883518L81.24307692307693,94.23938271638981L81.37230769230769,94.93768797941787L81.41538461538462,95.86300747660086L81.50153846153846,96.26970997409923L81.54461538461538,97.1020646951065L82.49230769230769,98.50988268868923L82.70769230769231,99.53248297637052L82.83692307692309,99.25271057736006L83.00923076923077,98.65406948969607L83.09538461538462,100.30922294609245L83.2676923076923,100.94526950381129L83.44,100.13855096426975L83.6123076923077,99.68673136729304L84.68923076923076,98.89948566532544L84.7323076923077,99.09019279716023L85.20615384615385,98.67230615814317L85.55076923076923,99.12137173966207L85.59384615384616,99.11026611077008L85.72307692307693,98.72314968489049L85.80923076923077,98.2937240767315L86.24,98.32905458323913L86.54153846153847,99.19105700894038L87.1876923076923,99.18226008240504L87.23076923076923,101.40217807441448L87.36,102.36804954929283L88.39384615384616,103.49991674631976L88.43692307692308,103.4347337383248L88.52307692307693,103.3765926814991L88.82461538461538,102.76449348405242L89.12615384615384,102.90426991207237L89.16923076923077,102.32097467447872L89.55692307692307,104.41664292377656L89.72923076923077,104.5938196193335L89.81538461538462,103.44641787191816L89.9876923076923,102.62039025150328L90.3753846153846,102.23915459362344L90.67692307692307,103.6442986897722L90.72,104.28258341002818L90.9353846153846,104.2892401643948L91.28,105.52443567853236L91.6676923076923,104.53406988093089L91.71076923076923,104.2005044789498L91.88307692307691,105.23094781675825L92.09846153846154,104.0514300927016L92.22769230769231,103.49359377130388L92.31384615384614,103.30933048492807L92.44307692307692,104.98923433017809L92.57230769230769,104.69874320203574L92.74461538461539,104.4097442965851L93.08923076923077,104.6917145801692L93.43384615384615,104.11742049988734L93.60615384615384,105.42913090178935L93.73538461538462,104.8656971432657L94.03692307692307,104.51156618119741L94.42461538461538,104.31881165917798L94.59692307692308,103.79356747889658L94.64,103.28938588415963L94.68307692307692,104.15582353497733L94.76923076923077,105.37421076686609L94.89846153846155,105.59077140611436L95.2,105.2920793661137L95.58769230769231,104.70638127982687L96.01846153846154,104.4294919352262L96.19076923076922,104.62112197984773L96.27692307692308,104.22039986494117L96.40615384615384,104.38834704181293L96.62153846153845,104.68203086910808L96.75076923076922,104.08833999266375L96.79384615384615,103.88957250586249L96.83692307692309,104.19061411144575L97.05230769230769,105.35498196778755L97.65538461538462,106.24267506623629L98.04307692307692,105.50724615932627L98.30153846153846,106.31272751299107L98.60307692307693,105.95975422139134L98.64615384615385,105.94427855242418L99.03384615384616,105.79726511916594L99.33538461538461,105.93409595138931L99.85230769230769,105.0332904832026L100.24,104.42557473347107L100.41230769230769,104.1866029120758L100.84307692307692,104.2240369165046L100.88615384615385,104.13816135418814L101.01538461538462,103.36735029237259L101.23076923076923,103.95347854939665L101.40307692307692,103.98445089683271L101.96307692307693,103.8240714277081L102.0923076923077,103.9444652163063L102.35076923076923,104.30642342737671L102.39384615384616,105.06724656414757L102.43692307692307,105.27583730575166L103.90153846153846,104.64353654036182L104.16,104.86247187408874L104.46153846153847,105.24705160369219L104.72,105.58940557608162L104.8923076923077,105.72680758204025L104.97846153846153,106.05047941860815L105.0646153846154,106.27132697353217L105.32307692307693,106.90753726435258L105.4523076923077,107.09044774236035L105.53846153846153,107.32207307739894L105.6676923076923,107.66076331383648L105.79692307692308,109.0738071230245L106.31384615384616,109.18265506736611L106.4,110.08208308161767L106.91692307692307,111.45325805431797L106.96000000000001,110.80354564881084L107.00307692307693,112.21445828857172L107.60615384615384,112.41377109078142L107.77846153846154,111.94192257409195L107.95076923076924,111.52025635980443L108.12307692307694,112.01102231203588L108.2953846153846,111.91728867127004L108.38153846153847,111.05051383793803L108.4676923076923,110.53285829116085L108.8123076923077,110.79682848182095L108.89846153846153,111.34811323563788L109.0276923076923,110.90723119402531L109.15692307692308,109.64388295644689L109.28615384615384,111.2070026504443L109.50153846153847,111.12774894145312L110.32000000000001,110.46330027558439L110.83692307692307,109.82619759315973L110.88000000000001,109.40988671986885L111.00923076923077,110.47798762420457L111.05230769230769,110.0627574012575L111.13846153846154,110.42874476193694L111.22461538461538,110.30708933578234L111.39692307692307,109.96177319213773L111.56923076923077,111.32676519936565L111.78461538461538,111.81269454647098L111.87076923076924,111.4288740383466L112.17230769230768,113.08067382664821L112.51692307692308,112.66830573924707L112.68923076923078,112.23114770389626L112.99076923076922,112.18698442333402L113.03384615384616,111.99484088498644L113.68,111.5084664019324L113.80923076923078,111.33433797332356L113.93846153846154,112.97141826304586L113.98153846153846,114.68410604084423L114.15384615384615,114.12047024706366L114.24,113.91622681630335L114.45538461538462,115.43517782167916L114.8,114.41682607176972L114.84307692307692,114.27031366333819L115.01538461538462,113.79315890932236L115.10153846153845,115.07174224458453L115.18769230769232,114.48357851139016L115.36,114.17732103424927L115.79076923076923,114.87104063712277L115.87692307692308,114.33275103905089L115.96307692307693,113.40238013577464L116.00615384615385,113.24918782558254L116.17846153846155,112.60069568039182L116.30769230769232,113.02899702073942L116.65230769230769,112.5576040700701L116.82461538461538,114.17288185909538L117.42769230769231,115.1921053451541L117.6,114.68339936636076L117.68615384615386,114.10310704185846L117.90153846153846,113.6621641770693L117.94461538461539,114.35009030195329L118.03076923076922,115.89908909029523L118.16,115.6853766515317L118.24615384615385,115.05153985681L118.3323076923077,114.97306700432736L118.37538461538462,114.25316760285153L118.67692307692309,114.38684282712839L118.80615384615385,113.95012743038981L119.02153846153846,113.5420742972405L119.84,113.66445191138816L120.27076923076923,114.91869007062766L120.52923076923076,114.65994751695072L120.65846153846154,114.53494755672548L120.7876923076923,114.21309053168844L120.91692307692307,115.46653927249142L120.96,116.11532054726408L121.00307692307693,116.05257893529205L121.43384615384616,116.79927242180048L121.47692307692307,117.96187115073926L121.52,119.01651917693917L121.60615384615384,119.01924623831408L122.12307692307692,119.93733735302514L122.16615384615383,119.87865391884999L122.59692307692308,120.97027474258755L122.9846153846154,120.1181699771931L123.71692307692307,119.32346751875964L124.32000000000001,118.40528142681563L124.49230769230769,118.1052826242133L124.53538461538461,118.84743781373939L124.62153846153846,118.65633865637389L124.96615384615384,119.85116766655955L125.05230769230769,119.27066250335119L125.22461538461538,118.94511175237167L125.6553846153846,119.10922338246905L126,118.95694604752715L126.04307692307691,118.35490134043074L126.51692307692308,118.25678215366068L126.86153846153847,117.83539564577532L127.12,117.16400382348422L127.16307692307691,116.63567757248416L127.24923076923078,117.7932384210163L127.33538461538461,118.87109763820234L127.55076923076923,118.79334050762586L128.6276923076923,119.14503693903754L128.67076923076922,119.13321167841721L129.10153846153847,120.11708687753668L129.18769230769232,117.57353521027841L129.36,117.32252990098358L129.40307692307692,117.03755686144959L129.87692307692308,116.1159584387589L130.00615384615384,115.3831938374424L130.26461538461538,116.97134650344265L130.48000000000002,116.78930872729921L130.56615384615384,116.48797882494647L130.6523076923077,115.82042122690044L130.73846153846154,117.15165365706007L131.12615384615384,116.79874684972904L131.29846153846154,116.29931735829093L131.47076923076924,116.21617831314146L131.55692307692308,116.90595587757042L131.68615384615384,116.8454481983496L132.07384615384615,117.86550428410379L132.1169230769231,118.28455393735538L132.5476923076923,119.6388931828547L132.63384615384615,118.96049620688441L133.1507692307692,120.54398428362865L133.19384615384615,120.7370539988745L133.2369230769231,120.10510262416531L133.40923076923076,119.45736109074113L133.58153846153846,118.7050395503615L133.84,119.19212972649251L134.5723076923077,119.45224473324654L134.70153846153846,119.1949478466515L134.83076923076922,119.87371438807214L134.87384615384616,120.94069138351048L135.21846153846153,120.56325166402573L135.47692307692307,121.84111779576324L135.73538461538462,120.92238991170143L135.95076923076923,119.95179790877793L136.76923076923077,120.48741883335765L136.94153846153847,119.65221459246791L137.0276923076923,119.23643979775507L137.24307692307693,117.72772894168861L137.45846153846153,118.01065396133319L138.01846153846154,118.14028738559985L138.32,119.32389807891475L138.96615384615384,120.95430627489279L139.44,120.43297549885007L139.48307692307694,122.22154314389388L139.6123076923077,122.1329251648599L139.87076923076924,121.79617933863372L140.17230769230767,121.57028430429082L140.2153846153846,121.10743515657708L140.25846153846155,121.3109941546798L140.30153846153846,121.70807799260257L140.3446153846154,120.91558806654254L140.73230769230767,121.67207022789427L141.72307692307692,121.28818496815393L141.76615384615386,121.15916870806709L141.80923076923077,122.18727033747882L142.11076923076922,122.03778124242534L142.5846153846154,121.85147366903786L142.67076923076922,121.00490200488917L143.18769230769232,120.87368077497642L143.23076923076923,121.13770371464405L143.36,120.57381203092982L143.44615384615386,119.73302996330881L143.48923076923074,118.8891857357933L143.57538461538462,119.93084810473343L144.39384615384614,119.65609935254577L144.73846153846154,121.762615105516L144.8676923076923,121.6199722867456L145.2553846153846,121.4357635855579L145.29846153846154,123.08188013078589L145.64307692307693,123.23621855138455L145.68615384615387,123.22070546327504L145.9446153846154,122.96924178271522L146.07384615384615,122.9680972800587L146.3323076923077,122.5888920322651L146.41846153846154,122.04020747827445L146.5046153846154,123.10003325217801L147.2369230769231,123.32910397874633L147.32307692307694,122.93223526626466L147.36615384615382,122.72830508600299L147.40923076923076,122.29254539352769L147.88307692307694,122.30092300126734L148.31384615384616,122.43704914132906L148.65846153846155,121.5881280214425L149.39076923076922,122.66349584251144L149.69230769230768,122.2542436874514L149.73538461538462,121.60266480669421L149.86461538461538,121.80139713755213L150.55384615384617,122.07715025008027L150.72615384615384,122.51321139942027L150.94153846153847,122.64038911130004L151.0276923076923,122.72539107816782L151.11384615384617,125.0863285052974L151.20000000000002,126.50167595175631L151.28615384615384,127.2716789986134L151.45846153846153,127.10710642283212L151.50153846153847,126.25408221424073L151.88923076923075,126.43638716261253L151.97538461538463,126.59309024530836L152.10461538461539,126.45059723233317L152.44923076923075,126.56104316941692L152.57846153846154,125.76029939950809L152.62153846153848,126.09863168753367L152.96615384615384,126.7189628190227L153.6123076923077,127.50982421651412L153.69846153846154,127.3451346784092L153.78461538461536,127.40904949547792L153.87076923076924,127.47716487806761L154.34461538461537,127.16799802926488L154.5169230769231,127.15383199141127L155.0769230769231,126.99538843077622L156.0676923076923,126.56191653565725L156.71384615384616,126.74941188508322L156.7569230769231,125.65257941543929L157.01538461538462,127.30962516968077L157.05846153846156,127.82739522342987L157.14461538461538,128.12203588668666L157.27384615384616,128.12777672825763L157.48923076923077,129.7721954528513L157.66153846153844,130.34992069486944L157.74769230769232,130.25829064266986L158.43692307692308,129.86134894933946L158.91076923076923,129.73996398993532L159.2123076923077,129.5649924754472L159.25538461538463,131.66374528448273L159.55692307692308,131.52787639389243L159.68615384615384,130.71704616515373L160.72,130.97421552093823L160.84923076923076,130.70020241262483L161.15076923076924,131.5107676349955L161.28,131.26431252431925L161.3230769230769,131.0978121149013L161.40923076923076,130.67814236675304L161.4523076923077,130.38496138341023L161.75384615384615,130.4935503266781L162.31384615384616,131.069453258275L162.52923076923076,131.51650745794052L162.91692307692307,131.9120332055937L163.00307692307692,131.86253011907823L163.08923076923077,131.40565973644743L163.39076923076925,133.08607813344787L163.95076923076923,132.88550307048254L164.03692307692307,132.4638267604543L164.29538461538462,131.93799157770098L164.64,132.01616081581955L164.89846153846153,131.11327158209357L164.94153846153844,130.88466870444688L165.15692307692305,132.75255466995463L165.37230769230771,131.99426482282104L165.67384615384617,133.24484699169074L166.01846153846154,132.272797219854L166.19076923076923,131.82902658548687L166.36307692307693,131.87520092659355L166.92307692307693,132.27945018251978L167.00923076923078,131.58381200727507L167.0953846153846,131.19230585183783L167.2246153846154,131.06792075598193L167.44,132.5159208381229L168.1723076923077,132.6903960380936L168.3876923076923,131.8561286104969L169.16307692307691,133.17351377390187L169.3353846153846,132.96384763331284L169.4646153846154,132.76698853439547L169.68,131.98440084171403L169.98153846153846,131.8616642826965L170.15384615384613,131.45977207227753L170.24,131.0041498725079L170.49846153846153,131.43378517731787L170.54153846153847,132.34347823666167L170.79999999999998,131.62127991061539L171.10153846153847,131.3645237967361L171.35999999999999,131.24353803671943L171.48923076923077,132.41530684656493L171.74769230769232,132.22057691256873L172.22153846153847,132.424607605765L172.30769230769232,131.67278133583665L172.73846153846154,131.8491548206072L172.86769230769232,131.98097263829862L172.95384615384614,131.65983195778L173.16923076923078,131.1053961107555L173.85846153846154,132.32599549524338L173.9446153846154,132.45732415289584L174.20307692307694,131.88764467287012L174.3753846153846,133.84178673138408L174.46153846153845,133.36344377821047L175.0646153846154,133.30178350460483L175.58153846153846,134.79123818331485L175.79692307692306,134.80430540159102L176.31384615384616,134.80747913311637L176.35692307692307,133.99672421123643L176.6153846153846,133.38564907946397L176.65846153846155,133.3522237287246L177.26153846153846,134.74912744592837L177.43384615384613,135.28021514121767L177.52,134.98461612729233L177.60615384615386,134.09863348574652L177.73538461538462,133.08157050677173L177.8646153846154,133.40896588084445L178.25230769230768,132.7612043124812L178.51076923076923,133.82257767058022L178.59692307692308,134.05839544050667L179.07076923076923,134.32400246820956L179.11384615384614,135.75347562145353L179.3723076923077,134.97630275669337L179.67384615384614,136.71659518147828L180.7076923076923,136.09391982660273L180.96615384615387,135.28497605566946L181.0523076923077,133.6463226516415L181.9569230769231,133.95720943655937L182.08615384615382,133.89389054588827L182.25846153846155,133.3430659332139L182.30153846153848,132.86423439250993L182.3446153846154,132.24241939782743L182.60307692307694,133.21218181473589L182.7323076923077,133.26866640775623L182.81846153846155,133.24102892883582L183.20615384615382,132.86476886040305L183.5076923076923,132.46256007868647L183.72307692307695,132.6747836694699L184.06769230769228,131.83745353807538L184.24,133.71015114349208L184.41230769230768,133.75313899720933L184.97230769230768,133.78291018094072L185.05846153846156,134.1183995409009L185.1876923076923,133.84398625119587L185.70461538461538,133.57518677633078L185.87692307692308,133.27233718877983L186.09230769230768,134.1878167827852L186.17846153846153,134.19867537252546L186.60923076923075,134.5268874165931L186.69538461538463,134.3994451642925L186.78153846153847,134.59951296729184L187.34153846153848,135.32869089661682L188.03076923076924,135.2352441868678L188.24615384615385,134.51692471114188L188.5476923076923,134.89462401043886L189.62461538461537,134.85862317315247L189.6676923076923,134.8263962356403L189.71076923076922,134.84177030167302L190.0123076923077,134.26351931005777L190.44307692307692,133.8751677825585L190.7876923076923,133.8933576430303L191.08923076923077,133.3629591031024L191.26153846153844,134.32680520396954L191.73538461538462,133.93445665389012L191.99384615384616,134.33014393741374L192.25230769230768,133.89845012538223L192.38153846153844,134.01002195818765L193.0276923076923,134.34865821627062L193.2,134.80098318345446L193.67384615384617,135.37841362048658L193.88923076923078,135.4963437043193L194.10461538461539,135.58487527478835L194.27692307692308,136.147189390822L194.32,136.5445455372203L194.79384615384618,136.94734524011324L194.83692307692309,137.26495387944198L195.31076923076924,138.22040883176516L195.3969230769231,139.1706992379074L195.44,138.5518165829322L195.74153846153845,137.76625142212805L195.8276923076923,137.0940411626839L195.87076923076924,137.48057713400772L195.91384615384615,138.17598571739526L195.9569230769231,139.27803042623893L196.21538461538464,138.80602911997826L197.16307692307691,138.62084409373594L197.89538461538461,138.19175694732695L198.11076923076925,137.75912415248735L198.15384615384616,137.12826332372612L198.23999999999998,138.15429084244136L198.58461538461538,137.85680666826838L199.10153846153847,137.46786628495425L201.08307692307693,136.92472110282552L201.68615384615384,138.23579665762554L201.72923076923078,139.14711768536085L202.20307692307694,138.30804992323573L202.24615384615385,136.99518192809677L202.3323076923077,136.55325715896674L202.41846153846154,137.0332836193332L202.5476923076923,136.73346124563943L202.59076923076924,135.88721874464218L202.67692307692306,135.50221058535354L203.6676923076923,136.20085979401347L203.8830769230769,135.5449124548132L204.0123076923077,136.62802947752425L204.14153846153846,136.24685967300547L204.35692307692307,135.7754286360671L204.83076923076925,136.2594024134203L205.21846153846153,135.1935328944876L205.3476923076923,134.85339058203078L205.39076923076925,135.34306324626684L205.77846153846153,136.7638194036341L206.03692307692307,136.5019776129343L206.72615384615386,136.22249622943886L206.98461538461538,137.3950290085159L207.15692307692308,137.72553967006164L207.54461538461538,137.90394070755983L207.63076923076923,137.4822989771962L208.01846153846154,137.00746331072463L208.19076923076923,138.28308594737507L208.44923076923078,137.51344891416312L208.6646153846154,139.22548127035097L208.92307692307693,139.8267572835093L209.3107692307692,140.86036966854232L209.61230769230767,139.88020396465097L209.7846153846154,138.5522347489868L210.17230769230767,137.50051616840423L210.81846153846155,136.67930857019115L211.12,136.72682628703046L211.2492307692308,137.16640211247193L211.3353846153846,135.74576456699205L211.37846153846155,135.30848927656086L211.55076923076922,134.85772382881817L211.59384615384616,136.33109982271407L212.15384615384613,137.88967329452043L212.41230769230768,138.17064565712064L212.45538461538462,137.39366299224008L212.54153846153847,137.225674845325L212.8,138.91097448655003L212.92923076923074,138.75090605586988L213.36,139.72242945499056L213.66153846153847,138.80943898376074L214.09230769230768,139.09775705884167L214.35076923076923,138.27342119393734L214.52307692307693,139.93217513634653L214.6523076923077,140.14803372943965L214.99692307692308,139.5699223240687L215.08307692307693,140.67575676072343L215.64307692307693,141.35230920385118L215.8153846153846,141.51138552197074L215.85846153846154,141.07023761828188L216.6769230769231,140.36443640635346L216.72,139.45027603148873L216.84923076923076,140.49350745174752L217.1507692307692,139.2105504709369L217.2369230769231,138.07330082223697L217.58153846153846,137.55326767324993L217.6676923076923,137.2999317988919L217.71076923076922,136.52259568149907L218.27076923076922,136.25954589309822L218.35692307692307,135.6015166005029L218.78769230769228,135.8996736858462L218.91692307692307,136.11340049079507L219.39076923076922,135.86996149286477L219.52,135.68052710159864L219.60615384615383,135.38246937018533L219.69230769230768,135.07246630110848L220.20923076923077,134.69854899480066L220.94153846153847,136.25324196007668L221.5876923076923,136.21616803792733L221.84615384615384,136.45977669715433L222.1476923076923,136.39262411275934L222.40615384615384,135.86119343743223L222.4923076923077,135.71296211132005L222.66461538461536,137.44536601049384L222.96615384615384,137.2360873813758L223.00923076923075,137.15430020325925L223.0523076923077,136.55402465615168L223.4830769230769,136.0171901868853L224.3876923076923,137.49858567270138L224.6030769230769,138.0605378290178L224.81846153846155,137.40619473898977L225.0769230769231,137.42826062938877L225.5076923076923,137.10165228455946L225.72307692307692,137.16861399464116L225.98153846153843,136.63451663321402L226.15384615384616,136.83258519944079L226.1969230769231,138.3364781983521L226.54153846153844,137.54642925478262L226.67076923076922,137.2457013463862L226.71384615384616,137.3280693231445L226.8,138.70521511393537L226.92923076923077,138.95979440588047L226.9723076923077,138.17401461889213L227.01538461538462,137.52669655562133L227.23076923076923,136.84109720462703L227.31692307692308,138.61832330904502L227.44615384615383,137.72483322879594L227.48923076923077,137.5818825287032L227.53230769230768,138.15399529328633L227.57538461538462,137.45882826370234L227.66153846153844,137.24642680570892L227.79076923076923,135.96761271846532L227.83384615384617,135.28520238118313L228.09230769230768,135.54155267668472L228.35076923076923,135.1543653581735L228.43692307692308,136.61256802011482L228.56615384615384,136.78675915236684L229.4276923076923,136.4896717769185L229.51384615384617,136.12693063606045L229.7723076923077,136.62839837826297L230.07384615384615,136.11919400118208L230.59076923076924,134.9141446736989L231.15076923076924,134.8541132334244L231.40923076923076,136.47767777497518L231.49538461538464,136.49275382045656L232.18461538461537,136.74860536987114L232.31384615384616,135.78529357043394L232.39999999999998,135.65200068599367L232.44307692307692,134.49842677465247L233.26153846153846,135.70794981888545L233.64923076923077,135.32161105728147L234.29538461538462,136.46396020853422L234.42461538461538,136.01529319091384L234.98461538461538,136.58906642622162L235.32923076923078,135.85724228997532L235.67384615384617,136.81574873048035L235.71692307692305,136.33380478717814L235.84615384615384,135.8748875972382L235.93230769230772,135.4047091345268L235.9753846153846,135.121513775022L236.57846153846154,136.45531740229558L236.92307692307693,135.4506679698286L237.31076923076924,136.837736565459L237.6123076923077,137.99755390304995L237.87076923076924,139.28237750610882L238,140.3551676861732L238.30153846153846,141.48783628957378L238.86153846153846,141.66853121112356L238.9476923076923,142.54284827976656L238.99076923076925,143.3179671262794L239.03384615384613,144.16787843808925L239.2923076923077,144.78258645440144L240.0676923076923,145.34798162052684L240.75692307692307,146.1113565604539L241.05846153846153,146.60742627260606L241.27384615384614,147.2316294354137L241.31692307692308,147.81560310998753L241.5753846153846,148.27572311187078L241.96307692307693,148.71862803785388L242.1353846153846,149.32992229499462L242.22153846153847,149.33705658195402L242.48,149.72498011086373L242.60923076923078,149.73639129904444L243.6,149.79262418081407L243.8153846153846,149.70702544652238L244.07384615384615,149.91035075030481L244.3753846153846,150.14217704883674L244.54769230769233,150.42943923273657L244.67692307692306,150.77672929412097L245.32307692307694,150.94860227012126L245.66769230769233,151.32607062185872L245.84,151.49121289767612L245.88307692307694,151.77201949343944L246.65846153846155,151.46784570256224L246.7876923076923,151.57730077207455L246.83076923076922,151.1598252525214L246.91692307692307,151.42810804897425L247.00307692307692,151.7422818690516L247.04615384615386,151.90899465167314L247.21846153846153,152.0733623167928L247.26153846153846,151.99670631054047L247.73538461538462,151.8676763786521L247.99384615384614,152.13473814630058L248.16615384615386,152.09915356900615L249.15692307692308,152.3571891916572L249.71692307692308,152.681771195898L250.06153846153848,152.87692869048345L250.32,152.87353844819467L250.40615384615387,152.93937963847915L250.44923076923075,153.06644149812146L250.88,153.07941320773068L250.92307692307693,152.93455298780026L251.56923076923076,152.47439596351097L251.69846153846154,152.3811347017503L252.1723076923077,152.3476541463388L252.2153846153846,152.6775058070056L252.3446153846154,152.69223891021238L252.7753846153846,152.51709193385818L253.07692307692307,152.61300132354637L253.24923076923076,152.99142483927915L253.42153846153846,152.51249434995972L253.80923076923077,152.56165861542053L254.0246153846154,152.6201431715898L254.11076923076922,152.32280766092748L254.19692307692307,152.06355722833496L254.58461538461538,152.37669930091243L254.8,152.4532280339722L255.01538461538462,152.31520021900508L255.61846153846153,152.15512363641943L255.66153846153847,152.40868147390884L255.7476923076923,152.3751651774607L255.96307692307693,152.50662126368906L256.35076923076923,152.60089781885347L256.60923076923075,152.5825862843995L257.16923076923075,152.69771349294152L257.55692307692306,152.94749931062876L257.64307692307693,152.52319922828323L257.81538461538463,152.65287552726107L257.85846153846154,152.62754101575635L258.03076923076924,152.5537822133282L258.28923076923076,152.45257269580713L258.5476923076923,152.4664738970871L258.76307692307694,152.47581540207753L258.89230769230767,152.26361711094347L258.97846153846154,152.07846172392902L259.45230769230767,152.48452923944242L259.62461538461537,152.82269808697544L260.0123076923077,152.90981417752792L260.18461538461537,153.08845578689332L260.35692307692307,153.2740245031227L260.5723076923077,153.45880276196408L260.7876923076923,153.61729849987213L237.00923076923078,151.9370981212477L237.00923076923078,151.0019646695775L236.96615384615384,150.0469962024513L237.0523076923077,148.63394579748467L237.0953846153846,147.83923276711784L237.4830769230769,148.293114282612L237.52615384615385,148.22350669376843L237.56923076923078,147.54182185750474L237.8276923076923,146.04492674651578L238.3446153846154,144.86681155771015L238.56,145.70807539721523L238.9046153846154,144.4147755088347L238.99076923076925,143.45311238277765L239.42153846153846,142.48850454794976L239.5076923076923,141.88896677787622L240.15384615384613,141.0901180383069L240.6276923076923,140.9161957068832L240.71384615384613,139.80168164361064L240.88615384615386,141.4778645334342L240.97230769230768,142.2582852934905L241.40307692307692,141.88013030066128L241.53230769230768,143.023446791176L241.87692307692308,141.7608154131759L242.43692307692308,141.2931829130584L242.52307692307693,140.28875900655623L242.99692307692308,139.3673501024824L243.29846153846154,141.2222848411754L243.42769230769233,141.00777232558596L243.6,140.45464013044693L244.20307692307694,140.019703861951L244.67692307692306,139.37736595541057L244.97846153846154,140.67109937085377L245.28,140.75422339512227L245.71076923076922,140.64350056624752L245.84,140.14887593271825L246.01230769230767,139.52588678166262L246.0553846153846,138.99664280334986L246.27076923076922,138.95005743153462L246.52923076923076,137.53861803560298L246.6153846153846,137.12507906898554L247.04615384615386,136.79371378183194L247.08923076923077,136.76265198204007L247.82153846153847,136.6698717159052L247.95076923076923,138.3385462755716L248.16615384615386,138.25448546377157L248.25230769230768,137.69809984296268L248.68307692307692,138.12497706181705L248.76923076923075,138.32385057850095L249.28615384615387,137.53993200126152L249.41538461538462,136.7576909185483L249.50153846153847,136.169741020299L249.80307692307693,136.12871617658794L250.23384615384614,137.69594921800223L236.96615384615384,138.77797091547302L237.0523076923077,138.07432004297453L237.13846153846154,137.3523613795596L237.2676923076923,136.64096623863048L237.35384615384618,136.51166140656758L237.39692307692306,138.16556969386906L237.56923076923078,137.62435657142333" style="fill: none;" fill="none"></path></g></g></g></g><g opacity="0.2"><g><g><g><path stroke="rgb(255, 112, 67)" stroke-width="2px" d="M30.49846153846154,-7.244078099727602L30.713846153846152,3.870500594377546L31.18769230769231,-4.144807189702959L31.446153846153845,5.326141387224226L31.661538461538463,-2.7076006233691885L32.30769230769231,0.6793901026249216L32.566153846153846,24.284682393074064L32.78153846153846,8.215606927871733L33.08307692307692,29.332411259412794L33.255384615384614,11.077885299921064L33.34153846153846,4.289050370454817L34.16,20.67223709821704L34.37538461538462,27.219968259334593L34.41846153846154,19.36101984977725L34.63384615384616,16.66239497065547L34.849230769230765,22.032523870468168L34.93538461538461,20.271325826644926L35.28,10.115990012884168L35.32307692307692,18.574647575616865L35.79692307692308,22.62759131193164L36.184615384615384,41.016793221235304L36.52923076923077,44.318575382232694L37.21846153846154,45.01138401031497L37.39076923076924,30.4146595001221L37.82153846153846,34.386970072984724L39.716923076923074,39.24889785051349L39.76,33.41254216432574L40.10461538461538,56.91873390972616L40.49230769230769,39.09174275398257L40.57846153846154,40.039381355047254L40.621538461538464,55.42028990387918L40.75076923076923,51.85336653888227L41.00923076923077,52.949639379978194L41.39692307692308,53.27077952027322L41.526153846153846,44.46193796396258L41.569230769230764,46.00862261652949L42,47.94527736306193L42.73230769230769,50.35472360253338L42.818461538461534,45.54408673942092L43.63692307692308,55.56965355575086L43.72307692307692,60.981789946556106L43.8523076923077,49.47240051627162L44.19692307692308,79.45006673038007L44.45538461538462,55.80594983696939L44.541538461538465,44.66149841248992L44.67076923076923,80.39916415512563L44.92923076923077,65.26433263719083L45.144615384615385,50.05602945387368L45.57538461538462,50.03650110960011L45.83384615384615,70.1963834166527L46.09230769230769,65.92007388174535L46.26461538461539,46.678985252976446L46.52307692307692,76.25822682678701L46.60923076923077,66.65664722025396L46.738461538461536,56.50535632669927L46.824615384615385,66.44263115525247L46.86769230769231,55.888307064771666L47.08307692307692,82.24112798273565L47.12615384615384,76.25703324377538L47.51384615384615,61.651290550827994L47.85846153846154,65.26877541840078L48.073846153846155,59.62929461896421L48.28923076923077,47.629707276821165L48.37538461538461,61.91096116602422L48.892307692307696,59.655586600303664L49.19384615384616,64.96073153614999L49.23692307692308,64.83656574785711L49.323076923076925,77.77106013894083L49.45230769230769,77.3533060848713L49.53846153846154,65.3816021680832L50.05538461538461,76.80210281908514L50.184615384615384,62.287337675690665L50.35692307692308,65.32898505032064L50.48615384615385,78.32014147937299L50.61538461538461,71.4228231161833L50.78769230769231,58.367743685841575L50.83076923076923,64.7740352600813L51.003076923076925,55.416112363338485L51.21846153846153,72.53156226873399L51.99384615384615,67.11120341718198L52.33846153846154,83.49594843387605L52.510769230769235,63.150861829519286L52.68307692307692,65.39705243706705L52.72615384615385,71.34451080858709L53.027692307692305,77.00342048704626L53.41538461538462,90.70177485048772L53.58769230769231,77.28321623802186L53.76,73.57041050493719L53.93230769230769,71.60557393729688L53.97538461538462,77.09857557713987L54.1476923076923,68.62791587412359L54.535384615384615,73.14237837493421L54.707692307692305,71.85171727836133L54.75076923076924,84.06210464239122L54.793846153846154,81.57487657666208L54.88,69.81393952667715L54.92307692307692,79.52241112291814L55.18153846153846,79.29015976190568L55.353846153846156,74.7031207829714L55.39692307692307,76.55831348896028L55.48307692307692,72.74372164905073L55.69846153846154,66.47697982192041L55.74153846153846,83.10949277877809L55.784615384615385,77.62086760997774L55.956923076923076,66.64514240622522L56.12923076923077,72.42062535881998L56.34461538461539,90.3879951387644L56.387692307692305,101.40821446478368L56.43076923076923,77.71151360869409L57.42153846153846,74.92937107384206L57.59384615384616,81.15609471499921L57.68,85.48031334578992L57.895384615384614,71.49838355183603L59.01538461538461,78.81680463254453L59.23076923076923,106.16318394243719L59.316923076923075,96.82061184942724L59.575384615384614,78.95313833653928L59.92,77.38689218461515L60.178461538461534,79.80999831855299L60.35076923076923,80.88733960688116L60.652307692307694,80.77033531665803L60.738461538461536,80.40171709656717L60.99692307692308,93.04646921157838L61.083076923076916,91.66957174241544L61.2123076923077,88.2923949211836L61.34153846153846,76.71560120582582L61.68615384615385,82.60961358249189L61.72923076923077,86.52032200992109L61.85846153846153,81.00189042091371L62.160000000000004,102.70925310254098L62.28923076923077,83.00207030773164L62.676923076923075,69.34784536063673L62.84923076923077,86.18512411415578L62.97846153846154,79.57111594080926L63.021538461538455,79.60287851095201L63.40923076923077,90.80883261561395L63.45230769230769,88.4486548304558L63.62461538461539,76.15534660220148L63.71076923076924,79.09328487515451L63.753846153846155,83.51186287403108L63.926153846153845,89.78089240193368L63.96923076923077,104.95189611613752L64.09846153846154,87.63668683171274L64.14153846153846,77.36311998963357L64.48615384615384,98.37243553996088L64.65846153846154,91.98209156095983L64.74461538461539,79.6635191589594L64.87384615384616,79.51200042665006L65.26153846153846,91.97516214847566L65.39076923076922,82.7029451429844L65.73538461538462,92.21580174565317L66.2523076923077,102.0762562453747L66.55384615384615,84.01459340751173L67.11384615384615,84.48692072927953L67.3723076923077,103.89325429499151L67.50153846153846,83.53424255549909L67.58769230769231,95.66114541888238L67.75999999999999,74.59997531771661L67.93230769230769,94.70342767238618L68.01846153846154,99.8868602961302L68.23384615384614,88.24508261680604L68.27692307692308,71.77652154862882L68.66461538461539,93.71819120645524L68.92307692307693,88.14754036068918L69.09538461538462,110.49807851016523L69.13846153846154,111.05820049345495L69.56923076923077,83.77959017455579L69.78461538461538,97.51159694790842L70.3876923076923,94.42104582488538L71.33538461538461,86.70114983618261L71.37846153846154,89.31284208595754L71.55076923076923,96.03059251606466L71.59384615384616,89.64455869793893L71.63692307692307,87.92626333236696L72.41230769230769,93.3355152308941L72.92923076923077,89.72827528417112L72.9723076923077,87.47900125384332L73.23076923076924,103.42046280205251L73.31692307692308,94.346513196826L73.5323076923077,90.04858654737474L74.6523076923077,92.1655386388302L74.73846153846154,95.96166309714319L75.16923076923078,100.05999614298345L75.64307692307692,89.73729346692564L75.77230769230769,92.23824773728849L75.90153846153846,93.09560504555704L76.76307692307692,111.07010316848756L77.02153846153846,83.49359442293645L77.32307692307693,91.44395139813425L77.58153846153846,95.17519135773183L78.01230769230769,93.67104467749597L78.22769230769231,92.51419749855997L78.27076923076922,92.10728515684606L78.4,113.83331415057184L78.74461538461539,96.49608989059927L78.87384615384616,88.54308050870897L79.00307692307692,105.029313236475L79.13230769230769,98.09313711524011L79.17538461538462,95.89445774257184L79.95076923076923,89.9393405467272L80.59692307692308,88.45389333367349L81.24307692307693,89.87860043346883L81.37230769230769,101.91306692361833L81.41538461538462,105.10603410005571L81.50153846153846,100.33226568996908L81.54461538461538,105.41646514832975L82.49230769230769,112.57259209454061L82.70769230769231,109.74724848568441L82.83692307692309,96.45806100964548L83.00923076923077,92.67423708736898L83.09538461538462,116.84256900846961L83.2676923076923,107.29874555766584L83.44,92.08023060858251L83.6123076923077,95.17350044846536L84.68923076923076,91.03567969799043L84.7323076923077,100.99516843259336L85.20615384615385,94.49803192913534L85.55076923076923,103.60709276795389L85.59384615384616,98.9993318617344L85.72307692307693,94.85623945295812L85.80923076923077,94.00418695807458L86.24,98.6819714009762L86.54153846153847,107.80160871148111L87.1876923076923,99.09438748657705L87.23076923076923,123.5769632905722L87.36,112.01615032553674L88.39384615384616,114.80615061521533L88.43692307692308,102.78361995518209L88.52307692307693,102.79582102596761L88.82461538461538,96.65022787451746L89.12615384615384,104.30049818754198L89.16923076923077,96.49443213641645L89.55692307692307,125.35029609501365L89.72923076923077,106.36363957822324L89.81538461538462,91.98500920832159L89.9876923076923,94.36919127404691L90.3753846153846,98.43098741769792L90.67692307692307,117.68029850721362L90.72,110.65841649472715L90.9353846153846,104.35573455691339L91.28,117.86281724274161L91.6676923076923,94.64129504561426L91.71076923076923,100.86851601302625L91.88307692307691,115.52405764162543L92.09846153846154,92.26921458542348L92.22769230769231,97.92136062681676L92.31384615384614,101.46872249245645L92.44307692307692,121.7698123008013L92.57230769230769,101.79702413082124L92.74461538461539,101.52293105423452L93.08923076923077,107.50831884145738L93.43384615384615,98.38079062104227L93.60615384615384,118.53182052075866L93.73538461538462,99.237551137805L94.03692307692307,100.97414810955526L94.42461538461538,102.39338462054731L94.59692307692308,98.54689759016038L94.64,98.25311039388181L94.68307692307692,112.81067875027658L94.76923076923077,117.54469421505931L94.89846153846155,107.75399801135065L95.2,102.30844129621984L95.58769230769231,98.85583665966989L96.01846153846154,101.6636412292719L96.19076923076922,106.53531660139562L96.27692307692308,100.2175822556019L96.40615384615384,106.06597323715688L96.62153846153845,107.61564184725286L96.75076923076922,98.1579553037882L96.79384615384615,101.90408189594747L96.83692307692309,107.19772201776506L97.05230769230769,116.98586528003219L97.65538461538462,115.10985118150714L98.04307692307692,98.16103872656824L98.30153846153846,114.35868960618976L98.60307692307693,102.43390013277532L98.64615384615385,105.78969192504884L99.03384615384616,104.32874631881715L99.33538461538461,107.3009006381035L99.85230769230769,96.03513476252557L100.24,98.35509543120862L100.41230769230769,101.79951076209547L100.84307692307692,104.5979655981064L100.88615384615385,103.28034941852094L101.01538461538462,95.66771012544633L101.23076923076923,109.80832014977933L101.40307692307692,104.29383401572706L101.96307692307693,102.2220391482115L102.0923076923077,105.14708009362222L102.35076923076923,107.92202797532083L102.39384615384616,112.66711723804475L102.43692307692307,107.35945251584054L103.90153846153846,98.32747724652292L104.16,107.04941932857038L104.46153846153847,109.08862274885179L104.72,109.00918316841127L104.8923076923077,107.09931772947313L104.97846153846153,109.28364095091821L105.0646153846154,108.47737562656404L105.32307692307693,113.26264885067941L105.4523076923077,108.91754251718523L105.53846153846153,109.63578109443189L105.6676923076923,111.04394380748273L105.79692307692308,123.18871726095679L106.31384615384616,110.26993837952615L106.4,119.06647939980033L106.91692307692307,125.14993992447856L106.96000000000001,104.31356129050256L107.00307692307693,126.30808015167716L107.60615384615384,114.40470886230472L107.77846153846154,107.22862255573274L107.95076923076924,107.30822791159154L108.12307692307694,116.91328880190852L108.2953846153846,110.9809823036194L108.38153846153847,102.39229050278665L108.4676923076923,105.36199134588243L108.8123076923077,113.43362961709501L108.89846153846153,116.85490269958976L109.0276923076923,106.50325563549997L109.15692307692308,97.02428352832796L109.28615384615384,126.82102245092395L109.50153846153847,110.3360827714205L110.32000000000001,103.82611525058748L110.83692307692307,103.46217189729215L110.88000000000001,105.25135283172132L111.00923076923077,121.14725929498675L111.05230769230769,105.9150181412697L111.13846153846154,114.08459652960303L111.22461538461538,109.09187194705011L111.39692307692307,106.51240643858911L111.56923076923077,124.96168535947803L111.78461538461538,116.66664813458922L111.87076923076924,107.59488676488401L112.17230769230768,129.5805200636387L112.51692307692308,108.54915638267995L112.68923076923078,107.8643712848425L112.99076923076922,111.74583692848684L113.03384615384616,110.07551696896554L113.68,106.65006634593011L113.80923076923078,109.59496718645097L113.93846153846154,129.3242312669754L113.98153846153846,131.79216307401657L114.15384615384615,108.49030610919L114.24,111.87603694200517L114.45538461538462,130.60799610614777L114.8,104.24449925124647L114.84307692307692,112.80679960548879L115.01538461538462,109.02685482800008L115.10153846153845,127.84352523088455L115.18769230769232,108.60840451717378L115.36,111.1181117296219L115.79076923076923,121.80061337351802L115.87692307692308,108.95577032864095L115.96307692307693,104.10889495909215L116.00615384615385,111.71894815564157L116.17846153846155,106.12290051579477L116.30769230769232,117.30730381608012L116.65230769230769,107.84885470569135L116.82461538461538,130.3079094439745L117.42769230769231,125.37313994765285L117.6,109.6019297540188L117.68615384615386,108.30656063556673L117.90153846153846,109.25758105516435L117.94461538461539,121.22179192304614L118.03076923076922,131.37205500900745L118.16,113.55060075223447L118.24615384615385,108.72013714909555L118.3323076923077,114.1892008185387L118.37538461538462,107.06208457052709L118.67692307692309,115.72212611138823L118.80615384615385,109.58777253329755L119.02153846153846,109.46602706611158L119.84,114.88688324391845L120.27076923076923,127.44728882610798L120.52923076923076,112.07536530494691L120.65846153846154,113.28632158041002L120.7876923076923,110.9980571717024L120.91692307692307,127.98725251853466L120.96,122.59600383043292L121.00307692307693,115.42585228383544L121.43384615384616,124.25800186395648L121.47692307692307,129.57508262991905L121.52,129.55140990018845L121.60615384615384,119.04648688435557L122.12307692307692,129.10815958678722L122.16615384615383,119.29246445000175L122.59692307692308,131.8744871467352L122.9846153846154,111.60648611187936L123.71692307692307,111.38517592847349L124.32000000000001,109.23351046442987L124.49230769230769,115.1085912883282L124.53538461538461,126.26083415746692L124.62153846153846,116.74744707345965L124.96615384615384,131.78632777929306L125.05230769230769,113.47199004888536L125.22461538461538,115.69318172335628L125.6553846153846,120.74853625893596L126,117.43584607541564L126.04307692307691,112.34107014536859L126.51692307692308,117.27666851878169L126.86153846153847,113.6261611878872L127.12,110.45746353268625L127.16307692307691,111.3582208454609L127.24923076923078,129.35612645745277L127.33538461538461,129.63784520328045L127.55076923076923,118.01662367582324L128.6276923076923,122.65813645720485L128.67076923076922,119.01508902013305L129.10153846153847,129.94502705335617L129.18769230769232,92.16596965491773L129.36,114.81523510813716L129.40307692307692,114.19095803797248L129.87692307692308,106.91010166704656L130.00615384615384,108.06360018253328L130.26461538461538,132.83542093634605L130.48000000000002,114.9709313809872L130.56615384615384,113.47799111902715L130.6523076923077,109.15218104422094L130.73846153846154,130.44934903085232L131.12615384615384,113.27355687320234L131.29846153846154,111.31051068007947L131.47076923076924,115.38570147752765L131.55692307692308,123.79615154862407L131.68615384615384,116.24103632569316L132.07384615384615,128.05485573410988L132.1169230769231,122.47044552862647L132.5476923076923,133.1674027889967L132.63384615384615,112.18398135900499L133.1507692307692,136.36146408319473L133.19384615384615,122.66562950611117L133.2369230769231,113.79253339767457L133.40923076923076,112.98706379532815L133.58153846153846,111.19009141623975L133.84,124.05767884850505L134.5723076923077,122.05053639411929L134.70153846153846,116.62480641901496L134.83076923076922,126.65392082929614L134.87384615384616,131.59873631596565L135.21846153846153,116.79300215840343L135.47692307692307,134.60573662817478L135.73538461538462,111.74520698189737L135.95076923076923,110.256543725729L136.76923076923077,125.83774213492873L136.94153846153847,111.3093502521515L137.0276923076923,115.08326080441478L137.24307692307693,102.65719962120058L137.45846153846153,120.83679509162906L138.01846153846154,119.43519708514216L138.32,131.14699830114841L138.96615384615384,137.24047166109085L139.44,115.22539664804938L139.48307692307694,140.0875650048256L139.6123076923077,121.24771919846538L139.87076923076924,118.43242157995704L140.17230769230767,119.31381632387641L140.2153846153846,116.48402993381026L140.25846153846155,123.34434722363952L140.30153846153846,125.67455281317237L140.3446153846154,112.9993974864483L140.73230769230767,129.22857885062695L141.72307692307692,117.45355089008811L141.76615384615386,119.87042386829856L141.80923076923077,132.45698881149292L142.11076923076922,120.54453302919867L142.5846153846154,119.9904452711344L142.67076923076922,112.54848834872247L143.18769230769232,119.56291046738627L143.23076923076923,123.775031760335L143.36,114.94109180569652L143.44615384615386,111.33444865047933L143.48923076923074,110.46001647412778L143.57538461538462,130.33602495491505L144.39384615384614,116.9116310477257L144.73846153846154,142.80462411046028L144.8676923076923,120.19511160254481L145.2553846153846,119.59570084512237L145.29846153846154,139.52495639026165L145.64307692307693,124.7779067307711L145.68615384615387,123.06574505567554L145.9446153846154,120.45736831426623L146.07384615384615,122.95666483044627L146.3323076923077,118.80100664496425L146.41846153846154,116.55939143896106L146.5046153846154,133.68664455413818L147.2369230769231,125.61729398369792L147.32307692307694,118.96790933609012L147.36615384615382,120.69124427437785L147.40923076923076,117.93973703682425L147.88307692307694,122.38460701704028L148.31384615384616,123.7968146502972L148.65846153846155,113.10824562609197L149.39076923076922,133.40535682439804L149.69230769230768,118.16621941328052L149.73538461538462,115.09403620660308L149.86461538461538,123.78653657436374L150.55384615384617,124.83165112137797L150.72615384615384,126.86903101205829L150.94153846153847,123.91076867282393L151.0276923076923,123.57447665929797L151.11384615384617,148.6697584092617L151.20000000000002,140.63959714770317L151.28615384615384,134.96324789524078L151.45846153846153,125.46318915486339L151.50153846153847,117.7332140207291L151.88923076923075,128.25743329524994L151.97538461538463,128.15839906036854L152.10461538461539,125.02723295986655L152.44923076923075,127.66428884863853L152.57846153846154,117.76166108250621L152.62153846153848,129.47823663055897L152.96615384615384,132.9154573082924L153.6123076923077,135.40974740684032L153.69846153846154,125.70004907250407L153.78461538461536,128.04749530553818L153.87076923076924,128.15757018327713L154.34461538461537,124.0797269791365L154.5169230769231,127.01232728362086L155.0769230769231,125.41269396245482L156.0676923076923,122.23196101188663L156.71384615384616,128.62230499088764L156.7569230769231,114.69630782306197L157.01538461538462,143.86187341809273L157.05846153846156,132.99940598011017L157.14461538461538,131.0652047097683L157.27384615384616,128.18512205779552L157.48923076923077,146.19831216335297L157.66153846153844,136.12082448601723L157.74769230769232,129.34299704432487L158.43692307692308,125.89629401266578L158.91076923076923,128.52744829654694L159.2123076923077,127.81720009446144L159.25538461538463,152.628210157156L159.55692307692308,130.17068055272102L159.68615384615384,122.61765410006049L160.72,133.54308304190636L160.84923076923076,127.96308246254921L161.15076923076924,139.60751254856586L161.28,128.80246971547604L161.3230769230769,129.43463769555092L161.40923076923076,126.48605664074424L161.4523076923077,127.45637331902981L161.75384615384615,131.57824647426605L162.31384615384616,136.82215397059917L162.52923076923076,135.98213677108288L162.91692307692307,135.86294424533844L163.00307692307692,131.36804324388504L163.08923076923077,126.84197646379474L163.39076923076925,149.87179596722126L163.95076923076923,130.88195656239986L164.03692307692307,128.2516974657774L164.29538461538462,126.68541815876964L164.64,132.7969941943884L164.89846153846153,122.09430110454562L164.94153846153844,128.60115204751492L165.15692307692305,151.41088810563087L165.37230769230771,124.41969920694831L165.67384615384617,145.73692601919174L166.01846153846154,122.56298136711123L166.19076923076923,127.3961968421936L166.36307692307693,132.33643692731857L166.92307692307693,136.31750044226646L167.00923076923078,124.6350746303797L167.0953846153846,127.28154656291008L167.2246153846154,129.82543666660786L167.44,146.9800095707178L168.1723076923077,134.433230727911L168.3876923076923,123.5226221084595L169.16307692307691,146.33288864791393L169.3353846153846,130.8694902509451L169.4646153846154,130.80056083202362L169.68,124.16712377965453L169.98153846153846,130.63564744591713L170.15384615384613,127.44526636600494L170.24,126.45293471217158L170.49846153846153,135.72541695833206L170.54153846153847,141.4304122030735L170.79999999999998,124.40723289549354L171.10153846153847,128.79978415369987L171.35999999999999,130.0350099503994L171.48923076923077,144.12011836469173L171.74769230769232,130.2754174619913L172.22153846153847,134.4626724421978L172.30769230769232,124.16278046369555L172.73846153846154,133.61095149815083L172.86769230769232,133.297702267766L172.95384615384614,128.45195417106152L173.16923076923078,125.56713034212592L173.85846153846154,144.51857616007328L173.9446153846154,133.76916755735874L174.20307692307694,126.19711008667949L174.3753846153846,153.36173322796822L174.46153846153845,128.58527076244354L175.0646153846154,132.68585835397243L175.58153846153846,149.66941733658314L175.79692307692306,134.93483398854733L176.31384615384616,134.83918157219887L176.35692307692307,125.89808438718322L176.6153846153846,127.28161287307739L176.65846153846155,133.01833753287792L177.26153846153846,148.70281402766705L177.43384615384613,140.58525596559048L177.52,132.0318743288517L177.60615384615386,125.24854314327243L177.73538461538462,122.9221172332764L177.8646153846154,136.6793218702078L178.25230769230768,126.29070688784125L178.51076923076923,144.42464780807495L178.59692307692308,136.41398173570633L179.07076923076923,136.97715398669243L179.11384615384614,150.0324986577034L179.3723076923077,127.21311447024345L179.67384615384614,154.10039533674717L180.7076923076923,129.87400886416435L180.96615384615387,127.2044278383255L181.0523076923077,117.277795791626L181.9569230769231,137.06266094744205L182.08615384615382,133.26139745116234L182.25846153846155,127.84087282419205L182.30153846153848,128.081180870533L182.3446153846154,126.03110258281234L182.60307692307694,142.89914925396442L182.7323076923077,133.83289162814617L182.81846153846155,132.96495784819126L183.20615384615382,129.10630290210247L183.5076923076923,128.44489213824272L183.72307692307695,134.7946874499321L184.06769230769228,123.47335365414622L184.24,152.4165481030941L184.41230769230768,134.18254514038563L184.97230769230768,134.08029486238956L185.05846153846156,137.46960644423962L185.1876923076923,131.10286888480186L185.70461538461538,130.89014586806297L185.87692307692308,130.24716933071613L186.09230769230768,143.33255250751972L186.17846153846153,134.30714194476604L186.60923076923075,137.80540113151073L186.69538461538463,133.1264231055975L186.78153846153847,136.59799244999886L187.34153846153848,142.6124572455883L188.03076923076924,134.30180397629738L188.24615384615385,127.34162357449532L188.5476923076923,138.66746646165848L189.62461538461537,134.49901041388512L189.6676923076923,134.5044810026884L189.71076923076922,134.9953420162201L190.0123076923077,128.48736380040646L190.44307692307692,129.9959201067686L190.7876923076923,134.07505635917187L191.08923076923077,128.06480225920677L191.26153846153844,143.95467449724674L191.73538461538462,130.0152826756239L191.99384615384616,138.28266856074333L192.25230769230768,129.58625589311123L192.38153846153844,135.12451422214508L193.0276923076923,137.73129951953888L193.2,139.3192622512579L193.67384615384617,141.14637260138988L193.88923076923078,136.67434860765934L194.10461538461539,136.46921810507774L194.27692307692308,141.76415127515793L194.32,140.5137404501438L194.79384615384618,140.9709158986807L194.83692307692309,140.4375500679016L195.31076923076924,147.76445885002613L195.3969230769231,148.6631605476141L195.44,132.36979094147682L195.74153846153845,129.91923239827156L195.8276923076923,130.3793254941702L195.87076923076924,141.3416891992092L195.91384615384615,145.12242969870567L195.9569230769231,150.28636713325977L196.21538461538464,134.0912028849125L197.16307692307691,136.77102883160114L197.89538461538461,133.90560072660446L198.11076923076925,133.43755041062832L198.15384615384616,130.82658757269382L198.23999999999998,148.40329100191593L198.58461538461538,134.88523398339748L199.10153846153847,133.5827365219593L201.08307692307693,131.49923790991306L201.68615384615384,151.33214478194714L201.72923076923078,148.2503134459257L202.20307692307694,129.92659282684326L202.24615384615385,123.88092909753325L202.3323076923077,132.13886578381062L202.41846153846154,141.82827320694923L202.5476923076923,133.7385322600603L202.59076923076924,127.43409310281277L202.67692307692306,131.65635985136032L203.6676923076923,143.17967441678047L203.8830769230769,128.99264727532864L204.0123076923077,147.44729731976986L204.14153846153846,132.43935030698776L204.35692307692307,131.06629882752895L204.83076923076925,141.09382179379463L205.21846153846153,124.54655055701735L205.3476923076923,131.45570528507233L205.39076923076925,140.2344088703394L205.77846153846153,150.9557682722807L206.03692307692307,133.8864370882511L206.72615384615386,133.43075361847878L206.98461538461538,149.10747182369232L207.15692307692308,141.02701430022717L207.54461538461538,139.68599063158035L207.63076923076923,133.27051509916782L208.01846153846154,132.2643246203661L208.19076923076923,151.02529448270798L208.44923076923078,129.82553613185883L208.6646153846154,156.32699128985405L208.92307692307693,145.83290998637676L209.3107692307692,151.18513514101505L209.61230769230767,130.08931797742844L209.7846153846154,125.28713566064837L210.17230769230767,126.99488770961764L210.81846153846155,128.4762568473816L211.12,137.20148128271103L211.2492307692308,141.55732986330986L211.3353846153846,121.55500051379207L211.37846153846155,130.94054159522057L211.55076923076922,130.3550228178501L211.59384615384616,151.04866881668568L212.15384615384613,153.4582808315754L212.41230769230768,140.9772816747427L212.45538461538462,129.63237461447716L212.54153846153847,135.54763939976692L212.8,155.74545112252235L212.92923076923074,137.15198074281216L213.36,149.4269873648882L213.66153846153847,129.6895671337843L214.09230769230768,141.97776947915554L214.35076923076923,130.03912118077278L214.52307692307693,156.50148649513721L214.6523076923077,142.30424758791924L214.99692307692308,133.7951611429453L215.08307692307693,151.72194910049438L215.64307692307693,148.11039899289608L215.8153846153846,143.10040061175823L215.85846153846154,136.6636063605547L216.6769230769231,133.31418034434319L216.72,130.31871800124645L216.84923076923076,150.91435757279396L217.1507692307692,126.39507909119132L217.2369230769231,126.7133015841246L217.58153846153846,132.3586508333683L217.6676923076923,134.76935696601868L217.71076923076922,128.75777666270733L218.27076923076922,133.63193866610527L218.35692307692307,129.02845476567745L218.78769230769228,138.8779680877924L218.91692307692307,138.2483198940754L219.39076923076922,133.4382466673851L219.52,133.78826488554478L219.60615384615383,132.4051674157381L219.69230769230768,131.97584223747253L220.20923076923077,130.96348491311073L220.94153846153847,151.78308707475662L221.5876923076923,135.84583622217178L221.84615384615384,138.89318627119064L222.1476923076923,135.72183620929718L222.40615384615384,130.5527265816927L222.4923076923077,134.2322777658701L222.66461538461536,154.7503675967455L222.96615384615384,135.1456008553505L223.00923076923075,136.33732718229294L223.0523076923077,130.55786561965942L223.4830769230769,130.65474477410316L224.3876923076923,152.296261459589L224.6030769230769,143.67388409376144L224.81846153846155,130.86995442211628L225.0769230769231,137.64867705106735L225.5076923076923,133.83915793895721L225.72307692307692,137.83749525249004L225.98153846153843,131.29941222071648L226.15384615384616,138.81109428405762L226.1969230769231,153.35888189077377L226.54153846153844,129.65462167561054L226.67076923076922,134.24172696471214L226.71384615384616,138.15084394812584L226.8,152.46153955161572L226.92923076923077,141.50278975069523L226.9723076923077,130.32485169172287L227.01538461538462,131.06062930822372L227.23076923076923,129.99263775348663L227.31692307692308,156.3710543960333L227.44615384615383,128.79975099861622L227.48923076923077,136.15394641458988L227.53230769230768,143.86883598566055L227.57538461538462,130.51479716598988L227.66153846153844,135.12474630773067L227.79076923076923,123.19352474808696L227.83384615384617,128.46859802305698L228.09230769230768,138.1022385954857L228.35076923076923,131.28674697875977L228.43692307692308,151.1785704344511L228.56615384615384,138.5267562866211L229.4276923076923,133.52206271886826L229.51384615384617,132.50350539386272L229.7723076923077,141.63756516575813L230.07384615384615,131.03274588286877L230.59076923076924,122.87689369916919L231.15076923076924,134.25445851683617L231.40923076923076,152.69548182189465L231.49538461538464,136.6433486044407L232.18461538461537,139.3043093085289L232.31384615384616,126.16276142001155L232.39999999999998,134.3205365985632L232.44307692307692,122.97536429762843L233.26153846153846,147.78988879919052L233.64923076923077,131.4624689221382L234.29538461538462,147.8748984336853L234.42461538461538,131.53355342149734L234.98461538461538,142.32049357891083L235.32923076923078,128.54704295098782L235.67384615384617,146.390280097723L235.71692307692305,131.51966144144535L235.84615384615384,131.29075874388218L235.93230769230772,130.70809130370617L235.9753846153846,132.29267221689224L236.57846153846154,149.77869649231434L236.92307692307693,125.4152137488127L237.31076923076924,150.6931800097227L237.6123076923077,149.58298203349113L237.87076923076924,152.1164945960045L238,151.07128058373928L238.30153846153846,152.80207541584969L238.86153846153846,143.4734947681427L238.9476923076923,151.27641108632088L238.99076923076925,151.0606378018856L239.03384615384613,152.6576518714428L239.2923076923077,150.9229115843773L240.0676923076923,150.99572014808655L240.75692307692307,153.7367172241211L241.05846153846153,151.56267207860947L241.27384615384614,153.46680168807507L241.31692307692308,153.64892256259918L241.5753846153846,152.87186686694622L241.96307692307693,153.1428102105856L242.1353846153846,155.43614734709263L242.22153846153847,149.4083210527897L242.48,153.5999525040388L242.60923076923078,149.85037778317928L243.6,150.3543350547552L243.8153846153846,148.8519787490368L244.07384615384615,151.94136944413185L244.3753846153846,152.45789249241352L244.54769230769233,153.2989043444395L244.67692307692306,154.24581353366375L245.32307692307694,152.66544331610203L245.66769230769233,155.09660613536835L245.84,153.14082090556622L245.88307692307694,154.57699966430664L246.65846153846155,148.42945036292076L246.7876923076923,152.67064866423607L246.83076923076922,146.9896577000618L246.91692307692307,154.10798785090446L247.00307692307692,154.88056761026382L247.04615384615386,153.57429046928883L247.21846153846153,153.7152327299118L247.26153846153846,151.23098862171173L247.73538461538462,150.57879497110844L247.99384615384614,154.8024210780859L248.16615384615386,151.74369883537292L249.15692307692308,154.93470986187458L249.71692307692308,155.92402440309525L250.06153846153848,154.82635904848576L250.32,152.83967328071594L250.40615384615387,153.5970680117607L250.44923076923075,154.33566381037235L250.88,153.2089877575636L250.92307692307693,151.48754265904427L251.56923076923076,147.87788239121437L251.69846153846154,151.44954693317413L252.1723076923077,152.01321651041508L252.2153846153846,155.9723976701498L252.3446153846154,152.8394080400467L252.7753846153846,150.76754686236382L253.07692307692307,153.5710412710905L253.24923076923076,156.7715014964342L253.42153846153846,147.72845242917538L253.80923076923077,153.05276100337505L254.0246153846154,153.2043460458517L254.11076923076922,149.35271997749805L254.19692307692307,149.47390180826187L254.58461538461538,155.50467890501022L254.8,153.21767438948154L255.01538461538462,150.93643885850906L255.61846153846153,150.55611689388752L255.66153846153847,154.94147349894047L255.7476923076923,152.0403705239296L255.96307692307693,153.8197375535965L256.35076923076923,153.54262736439705L256.60923076923075,152.39967216551304L257.16923076923075,153.84772044420242L257.55692307692306,155.4426125884056L257.64307692307693,148.2848610430956L257.81538461538463,153.9482135027647L257.85846153846154,152.37447430193424L258.03076923076924,151.81700472533703L258.28923076923076,151.44158971309662L258.5476923076923,152.60533314943314L258.76307692307694,152.56912779808044L258.89230769230767,150.14396604895592L258.97846153846154,150.22894252836704L259.45230769230767,156.5407421141863L259.62461538461537,156.2006704211235L260.0123076923077,153.78001776337624L260.18461538461537,154.87290878593922L260.35692307692307,155.1276724487543L260.5723076923077,155.30455482006073L260.7876923076923,155.20051416754723L237.00923076923078,135.153558075428L237.00923076923078,141.66090634465218L236.96615384615384,140.50780569016933L237.0523076923077,134.51896977424622L237.0953846153846,139.90083557367325L237.4830769230769,152.82694172859192L237.52615384615385,147.52819572389126L237.56923076923078,140.7324645370245L237.8276923076923,131.09242503345013L238.3446153846154,133.09860599040985L238.56,154.11146913468838L238.9046153846154,131.49598871171474L238.99076923076925,133.84704884886742L239.42153846153846,132.85302628576756L239.5076923076923,135.90017740428448L240.15384615384613,133.1104092001915L240.6276923076923,139.17888362705708L240.71384615384613,128.6687884181738L240.88615384615386,158.22127383947372L240.97230769230768,150.05391684174538L241.40307692307692,138.10273592174053L241.53230769230768,154.44404777884483L241.87692307692308,129.14837670326233L242.43692307692308,136.62199673056602L242.52307692307693,130.25555756688118L242.99692307692308,130.16338643431664L243.29846153846154,159.75124832987785L243.42769230769233,138.86500445008278L243.6,134.9293965548277L244.20307692307694,135.67512069642544L244.67692307692306,132.96104554831982L244.97846153846154,153.59421667456627L245.28,141.5845501869917L245.71076923076922,139.53748901188374L245.84,135.20806503295898L246.01230769230767,133.30284130573273L246.0553846153846,133.71001888811588L246.27076923076922,138.4847156405449L246.52923076923076,123.43973439931872L246.6153846153846,132.99423378705978L247.04615384615386,133.4837022870779L247.08923076923077,136.45237532258034L247.82153846153847,135.74308861792088L247.95076923076923,155.00695478916168L248.16615384615386,137.41480109095573L248.25230769230768,132.14035776257515L248.68307692307692,142.38905829191208L248.76923076923075,140.31040032207966L249.28615384615387,129.7093607187271L249.41538461538462,128.9438761472702L249.50153846153847,130.29670302569866L249.80307692307693,135.71891856193542L250.23384615384614,153.35105729103088L236.96615384615384,149.58629754185677L237.0523076923077,131.0455437451601L237.13846153846154,130.14070835709572L237.2676923076923,129.5348323583603L237.35384615384618,135.2200340181589L237.39692307692306,154.68647775053978L237.56923076923078,132.2181727439165" style="fill: none;" fill="none"></path></g></g></g></g></g></g><g transform="translate(50, 178)" clip-path="url(#clip_1)"><clipPath id="clip_1"><rect width="280" height="22"></rect></clipPath><g><g><line x1="0" y1="0" x2="0" y2="5" style="visibility: inherit;" fill="rgb(0, 0, 0)" stroke="rgb(204, 204, 204)" stroke-width="1px"></line><line x1="21.53846153846154" y1="0" x2="21.53846153846154" y2="5" style="visibility: inherit;" fill="rgb(0, 0, 0)" stroke="rgb(204, 204, 204)" stroke-width="1px"></line><line x1="43.07692307692308" y1="0" x2="43.07692307692308" y2="5" style="visibility: inherit;" fill="rgb(0, 0, 0)" stroke="rgb(204, 204, 204)" stroke-width="1px"></line><line x1="64.61538461538461" y1="0" x2="64.61538461538461" y2="5" style="visibility: inherit;" fill="rgb(0, 0, 0)" stroke="rgb(204, 204, 204)" stroke-width="1px"></line><line x1="86.15384615384616" y1="0" x2="86.15384615384616" y2="5" style="visibility: inherit;" fill="rgb(0, 0, 0)" stroke="rgb(204, 204, 204)" stroke-width="1px"></line><line x1="107.6923076923077" y1="0" x2="107.6923076923077" y2="5" style="visibility: inherit;" fill="rgb(0, 0, 0)" stroke="rgb(204, 204, 204)" stroke-width="1px"></line><line x1="129.23076923076923" y1="0" x2="129.23076923076923" y2="5" style="visibility: inherit;" fill="rgb(0, 0, 0)" stroke="rgb(204, 204, 204)" stroke-width="1px"></line><line x1="150.76923076923077" y1="0" x2="150.76923076923077" y2="5" style="visibility: inherit;" fill="rgb(0, 0, 0)" stroke="rgb(204, 204, 204)" stroke-width="1px"></line><line x1="172.30769230769232" y1="0" x2="172.30769230769232" y2="5" style="visibility: inherit;" fill="rgb(0, 0, 0)" stroke="rgb(204, 204, 204)" stroke-width="1px"></line><line x1="193.84615384615384" y1="0" x2="193.84615384615384" y2="5" style="visibility: inherit;" fill="rgb(0, 0, 0)" stroke="rgb(204, 204, 204)" stroke-width="1px"></line><line x1="215.3846153846154" y1="0" x2="215.3846153846154" y2="5" style="visibility: inherit;" fill="rgb(0, 0, 0)" stroke="rgb(204, 204, 204)" stroke-width="1px"></line><line x1="236.92307692307693" y1="0" x2="236.92307692307693" y2="5" style="visibility: inherit;" fill="rgb(0, 0, 0)" stroke="rgb(204, 204, 204)" stroke-width="1px"></line><line x1="258.46153846153845" y1="0" x2="258.46153846153845" y2="5" style="visibility: inherit;" fill="rgb(0, 0, 0)" stroke="rgb(204, 204, 204)" stroke-width="1px"></line><line x1="280" y1="0" x2="280" y2="5" style="visibility: inherit;" fill="rgb(0, 0, 0)" stroke="rgb(204, 204, 204)" stroke-width="1px"></line></g><g transform="translate(0, 8)"><text x="0" y="0" dx="0em" dy="0.95em" style="text-anchor: middle; visibility: hidden; font-family: &quot;Helvetica Neue&quot;, sans-serif; font-size: 12px; font-weight: 200;" fill="rgb(50, 49, 63)" stroke="none" stroke-width="1px">-50k</text><text x="21.53846153846154" y="0" dx="0em" dy="0.95em" style="text-anchor: middle; visibility: inherit; font-family: &quot;Helvetica Neue&quot;, sans-serif; font-size: 12px; font-weight: 200;" fill="rgb(50, 49, 63)" stroke="none" stroke-width="1px">0</text><text x="43.07692307692308" y="0" dx="0em" dy="0.95em" style="text-anchor: middle; visibility: hidden; font-family: &quot;Helvetica Neue&quot;, sans-serif; font-size: 12px; font-weight: 200;" fill="rgb(50, 49, 63)" stroke="none" stroke-width="1px">50k</text><text x="64.61538461538461" y="0" dx="0em" dy="0.95em" style="text-anchor: middle; visibility: inherit; font-family: &quot;Helvetica Neue&quot;, sans-serif; font-size: 12px; font-weight: 200;" fill="rgb(50, 49, 63)" stroke="none" stroke-width="1px">100k</text><text x="86.15384615384616" y="0" dx="0em" dy="0.95em" style="text-anchor: middle; visibility: hidden; font-family: &quot;Helvetica Neue&quot;, sans-serif; font-size: 12px; font-weight: 200;" fill="rgb(50, 49, 63)" stroke="none" stroke-width="1px">150k</text><text x="107.6923076923077" y="0" dx="0em" dy="0.95em" style="text-anchor: middle; visibility: inherit; font-family: &quot;Helvetica Neue&quot;, sans-serif; font-size: 12px; font-weight: 200;" fill="rgb(50, 49, 63)" stroke="none" stroke-width="1px">200k</text><text x="129.23076923076923" y="0" dx="0em" dy="0.95em" style="text-anchor: middle; visibility: hidden; font-family: &quot;Helvetica Neue&quot;, sans-serif; font-size: 12px; font-weight: 200;" fill="rgb(50, 49, 63)" stroke="none" stroke-width="1px">250k</text><text x="150.76923076923077" y="0" dx="0em" dy="0.95em" style="text-anchor: middle; visibility: inherit; font-family: &quot;Helvetica Neue&quot;, sans-serif; font-size: 12px; font-weight: 200;" fill="rgb(50, 49, 63)" stroke="none" stroke-width="1px">300k</text><text x="172.30769230769232" y="0" dx="0em" dy="0.95em" style="text-anchor: middle; visibility: hidden; font-family: &quot;Helvetica Neue&quot;, sans-serif; font-size: 12px; font-weight: 200;" fill="rgb(50, 49, 63)" stroke="none" stroke-width="1px">350k</text><text x="193.84615384615384" y="0" dx="0em" dy="0.95em" style="text-anchor: middle; visibility: inherit; font-family: &quot;Helvetica Neue&quot;, sans-serif; font-size: 12px; font-weight: 200;" fill="rgb(50, 49, 63)" stroke="none" stroke-width="1px">400k</text><text x="215.3846153846154" y="0" dx="0em" dy="0.95em" style="text-anchor: middle; visibility: hidden; font-family: &quot;Helvetica Neue&quot;, sans-serif; font-size: 12px; font-weight: 200;" fill="rgb(50, 49, 63)" stroke="none" stroke-width="1px">450k</text><text x="236.92307692307693" y="0" dx="0em" dy="0.95em" style="text-anchor: middle; visibility: inherit; font-family: &quot;Helvetica Neue&quot;, sans-serif; font-size: 12px; font-weight: 200;" fill="rgb(50, 49, 63)" stroke="none" stroke-width="1px">500k</text><text x="258.46153846153845" y="0" dx="0em" dy="0.95em" style="text-anchor: middle; visibility: hidden; font-family: &quot;Helvetica Neue&quot;, sans-serif; font-size: 12px; font-weight: 200;" fill="rgb(50, 49, 63)" stroke="none" stroke-width="1px">550k</text><text x="280" y="0" dx="0em" dy="0.95em" style="text-anchor: middle; visibility: hidden; font-family: &quot;Helvetica Neue&quot;, sans-serif; font-size: 12px; font-weight: 200;" fill="rgb(50, 49, 63)" stroke="none" stroke-width="1px">600k</text></g><line x1="0" y1="0" x2="280" y2="0" fill="rgb(0, 0, 0)" stroke="rgb(204, 204, 204)" stroke-width="1px"></line></g></g></g></g></svg>